<svg xmlns="http://www.w3.org/2000/svg" viewBox="0 0 47 47" width="47" height="47"><defs><clipPath id="artboard-8482248050121841203"><rect x="0" y="0" width="48" height="48"/></clipPath></defs><g>
<rect fill="#ffffff" x="0" y="0" width="48" height="48"/>
<g clip-path="url(#artboard-8482248050121841203)">
	<g>
		<path d="M14.837855,-2.609147C12.90159,-8.232098 6.76127,-11.226874 1.138253,-9.290714 C1.138253,-9.290714 -15.280139,-3.637408 -15.280139,-3.637408 C-20.903226,-1.701224 -23.898101,4.439178 -21.961916,10.062266 C-21.961916,10.062266 -16.308611,26.480657 -16.308611,26.480657 C-14.372426,32.103745 -8.232024,35.098619 -2.608937,33.162435 C-8.232024,35.098619 -11.226898,41.239022 -9.290714,46.862109 C-9.290714,46.862109 -3.637408,63.280501 -3.637408,63.280501 C-1.701224,68.903588 4.439178,71.898463 10.062266,69.962278 C10.062266,69.962278 26.480657,64.308973 26.480657,64.308973 C32.103745,62.372788 35.098619,56.232386 33.162435,50.609298 C35.098619,56.232386 41.239022,59.22726 46.862109,57.291076 C46.862109,57.291076 63.280501,51.63777 63.280501,51.63777 C68.903588,49.701586 71.898463,43.561184 69.962278,37.938096 C69.962278,37.938096 64.308973,21.519705 64.308973,21.519705 C62.372788,15.896617 56.232386,12.901743 50.609298,14.837927 C56.232386,12.901743 59.22726,6.76134 57.291076,1.138253 C57.291076,1.138253 51.63777,-15.280139 51.63777,-15.280139 C49.701586,-20.903226 43.561184,-23.898101 37.938096,-21.961916 C37.938096,-21.961916 21.519705,-16.308611 21.519705,-16.308611 C15.896687,-14.372451 12.901817,-8.232177 14.837855,-2.609147 L 14.837855,-2.609147 ZM17.66458,5.600259C17.66458,5.600259 25.873776,2.773606 25.873776,2.773606 C31.496863,0.837422 37.637266,3.832297 39.57345,9.455384 C39.57345,9.455384 42.400103,17.66458 42.400103,17.66458 C42.400103,17.66458 45.226755,25.873776 45.226755,25.873776 C47.16294,31.496863 44.168065,37.637266 38.544978,39.57345 C38.544978,39.57345 30.335782,42.400103 30.335782,42.400103 C30.335782,42.400103 22.126586,45.226755 22.126586,45.226755 C16.503499,47.16294 10.363096,44.168065 8.426912,38.544978 C8.426912,38.544978 5.600259,30.335782 5.600259,30.335782 C5.600259,30.335782 2.773606,22.126586 2.773606,22.126586 C0.837422,16.503499 3.832297,10.363096 9.455384,8.426912 C9.455384,8.426912 17.66458,5.600259 17.66458,5.600259 L 17.66458,5.600259 ZM13.809455,27.509129C13.809455,27.509129 13.809576,27.509088 13.809576,27.509088 C19.432631,25.572988 25.572959,28.56786 27.509129,34.190907 C25.572945,28.567819 28.567819,22.427417 34.190907,20.491233 C28.567819,22.427417 22.427417,19.432543 20.491233,13.809455 C22.427417,19.432543 19.432543,25.572945 13.809455,27.509129 L 13.809455,27.509129 Z" fill="#000000"/>
	</g>
	<g>
		<path d="M24.000181,-2.684439C24.000181,-2.684439 52.058051,17.700797 52.058051,17.700797 C52.058051,17.700797 41.340898,50.684801 41.340898,50.684801 C41.340898,50.684801 6.659464,50.684801 6.659464,50.684801 C6.659464,50.684801 -4.057689,17.700797 -4.057689,17.700797 C-4.057689,17.700797 24.000181,-2.684439 24.000181,-2.684439 Z" transform="matrix(1,0,0,1,0,0)" fill="none" stroke="#000000" stroke-width="6"/>
	</g>
	<g>
		<path d="M24.000181,50.684801C24.000181,50.684801 -4.057689,30.299565 -4.057689,30.299565 C-4.057689,30.299565 6.659464,-2.684439 6.659464,-2.684439 C6.659464,-2.684439 41.340898,-2.684439 41.340898,-2.684439 C41.340898,-2.684439 52.058051,30.299565 52.058051,30.299565 C52.058051,30.299565 24.000181,50.684801 24.000181,50.684801 Z" transform="matrix(1,0,0,1,0,0)" fill="none" stroke="#000000" stroke-width="5"/>
	</g>
</g></g></svg>